<?xml version="1.0" standalone="no"?>

<svg xmlns="http://www.w3.org/2000/svg" width="1024" height="1024"><defs><clipPath id="clip-path-dot-color"><circle cx="44" cy="252" r="13" transform="rotate(0,44,252)"/><circle cx="44" cy="278" r="13" transform="rotate(0,44,278)"/><circle cx="44" cy="330" r="13" transform="rotate(0,44,330)"/><circle cx="44" cy="356" r="13" transform="rotate(0,44,356)"/><circle cx="44" cy="382" r="13" transform="rotate(0,44,382)"/><circle cx="44" cy="408" r="13" transform="rotate(0,44,408)"/><circle cx="44" cy="460" r="13" transform="rotate(0,44,460)"/><circle cx="44" cy="538" r="13" transform="rotate(0,44,538)"/><circle cx="44" cy="642" r="13" transform="rotate(0,44,642)"/><circle cx="44" cy="720" r="13" transform="rotate(0,44,720)"/><circle cx="44" cy="772" r="13" transform="rotate(0,44,772)"/><circle cx="70" cy="252" r="13" transform="rotate(0,70,252)"/><circle cx="70" cy="304" r="13" transform="rotate(0,70,304)"/><circle cx="70" cy="330" r="13" transform="rotate(0,70,330)"/><circle cx="70" cy="408" r="13" transform="rotate(0,70,408)"/><circle cx="70" cy="538" r="13" transform="rotate(0,70,538)"/><circle cx="70" cy="564" r="13" transform="rotate(0,70,564)"/><circle cx="70" cy="668" r="13" transform="rotate(0,70,668)"/><circle cx="70" cy="720" r="13" transform="rotate(0,70,720)"/><circle cx="70" cy="746" r="13" transform="rotate(0,70,746)"/><circle cx="70" cy="772" r="13" transform="rotate(0,70,772)"/><circle cx="96" cy="252" r="13" transform="rotate(0,96,252)"/><circle cx="96" cy="278" r="13" transform="rotate(0,96,278)"/><circle cx="96" cy="330" r="13" transform="rotate(0,96,330)"/><circle cx="96" cy="356" r="13" transform="rotate(0,96,356)"/><circle cx="96" cy="408" r="13" transform="rotate(0,96,408)"/><circle cx="96" cy="434" r="13" transform="rotate(0,96,434)"/><circle cx="96" cy="460" r="13" transform="rotate(0,96,460)"/><circle cx="96" cy="486" r="13" transform="rotate(0,96,486)"/><circle cx="96" cy="512" r="13" transform="rotate(0,96,512)"/><circle cx="96" cy="538" r="13" transform="rotate(0,96,538)"/><circle cx="96" cy="564" r="13" transform="rotate(0,96,564)"/><circle cx="96" cy="590" r="13" transform="rotate(0,96,590)"/><circle cx="96" cy="616" r="13" transform="rotate(0,96,616)"/><circle cx="96" cy="642" r="13" transform="rotate(0,96,642)"/><circle cx="96" cy="668" r="13" transform="rotate(0,96,668)"/><circle cx="96" cy="746" r="13" transform="rotate(0,96,746)"/><circle cx="96" cy="772" r="13" transform="rotate(0,96,772)"/><circle cx="122" cy="278" r="13" transform="rotate(0,122,278)"/><circle cx="122" cy="304" r="13" transform="rotate(0,122,304)"/><circle cx="122" cy="382" r="13" transform="rotate(0,122,382)"/><circle cx="122" cy="564" r="13" transform="rotate(0,122,564)"/><circle cx="122" cy="642" r="13" transform="rotate(0,122,642)"/><circle cx="122" cy="668" r="13" transform="rotate(0,122,668)"/><circle cx="122" cy="694" r="13" transform="rotate(0,122,694)"/><circle cx="122" cy="720" r="13" transform="rotate(0,122,720)"/><circle cx="122" cy="746" r="13" transform="rotate(0,122,746)"/><circle cx="148" cy="382" r="13" transform="rotate(0,148,382)"/><circle cx="148" cy="408" r="13" transform="rotate(0,148,408)"/><circle cx="148" cy="486" r="13" transform="rotate(0,148,486)"/><circle cx="148" cy="512" r="13" transform="rotate(0,148,512)"/><circle cx="148" cy="668" r="13" transform="rotate(0,148,668)"/><circle cx="148" cy="694" r="13" transform="rotate(0,148,694)"/><circle cx="148" cy="772" r="13" transform="rotate(0,148,772)"/><circle cx="174" cy="252" r="13" transform="rotate(0,174,252)"/><circle cx="174" cy="304" r="13" transform="rotate(0,174,304)"/><circle cx="174" cy="330" r="13" transform="rotate(0,174,330)"/><circle cx="174" cy="460" r="13" transform="rotate(0,174,460)"/><circle cx="174" cy="486" r="13" transform="rotate(0,174,486)"/><circle cx="174" cy="512" r="13" transform="rotate(0,174,512)"/><circle cx="174" cy="564" r="13" transform="rotate(0,174,564)"/><circle cx="174" cy="590" r="13" transform="rotate(0,174,590)"/><circle cx="174" cy="642" r="13" transform="rotate(0,174,642)"/><circle cx="174" cy="668" r="13" transform="rotate(0,174,668)"/><circle cx="174" cy="694" r="13" transform="rotate(0,174,694)"/><circle cx="174" cy="720" r="13" transform="rotate(0,174,720)"/><circle cx="174" cy="746" r="13" transform="rotate(0,174,746)"/><circle cx="200" cy="252" r="13" transform="rotate(0,200,252)"/><circle cx="200" cy="304" r="13" transform="rotate(0,200,304)"/><circle cx="200" cy="356" r="13" transform="rotate(0,200,356)"/><circle cx="200" cy="408" r="13" transform="rotate(0,200,408)"/><circle cx="200" cy="460" r="13" transform="rotate(0,200,460)"/><circle cx="200" cy="512" r="13" transform="rotate(0,200,512)"/><circle cx="200" cy="564" r="13" transform="rotate(0,200,564)"/><circle cx="200" cy="616" r="13" transform="rotate(0,200,616)"/><circle cx="200" cy="668" r="13" transform="rotate(0,200,668)"/><circle cx="200" cy="720" r="13" transform="rotate(0,200,720)"/><circle cx="200" cy="772" r="13" transform="rotate(0,200,772)"/><circle cx="226" cy="252" r="13" transform="rotate(0,226,252)"/><circle cx="226" cy="278" r="13" transform="rotate(0,226,278)"/><circle cx="226" cy="356" r="13" transform="rotate(0,226,356)"/><circle cx="226" cy="408" r="13" transform="rotate(0,226,408)"/><circle cx="226" cy="434" r="13" transform="rotate(0,226,434)"/><circle cx="226" cy="460" r="13" transform="rotate(0,226,460)"/><circle cx="226" cy="486" r="13" transform="rotate(0,226,486)"/><circle cx="226" cy="512" r="13" transform="rotate(0,226,512)"/><circle cx="226" cy="538" r="13" transform="rotate(0,226,538)"/><circle cx="226" cy="564" r="13" transform="rotate(0,226,564)"/><circle cx="226" cy="642" r="13" transform="rotate(0,226,642)"/><circle cx="226" cy="668" r="13" transform="rotate(0,226,668)"/><circle cx="226" cy="694" r="13" transform="rotate(0,226,694)"/><circle cx="226" cy="746" r="13" transform="rotate(0,226,746)"/><circle cx="252" cy="96" r="13" transform="rotate(0,252,96)"/><circle cx="252" cy="122" r="13" transform="rotate(0,252,122)"/><circle cx="252" cy="148" r="13" transform="rotate(0,252,148)"/><circle cx="252" cy="200" r="13" transform="rotate(0,252,200)"/><circle cx="252" cy="252" r="13" transform="rotate(0,252,252)"/><circle cx="252" cy="278" r="13" transform="rotate(0,252,278)"/><circle cx="252" cy="356" r="13" transform="rotate(0,252,356)"/><circle cx="252" cy="382" r="13" transform="rotate(0,252,382)"/><circle cx="252" cy="616" r="13" transform="rotate(0,252,616)"/><circle cx="252" cy="668" r="13" transform="rotate(0,252,668)"/><circle cx="252" cy="720" r="13" transform="rotate(0,252,720)"/><circle cx="252" cy="746" r="13" transform="rotate(0,252,746)"/><circle cx="252" cy="798" r="13" transform="rotate(0,252,798)"/><circle cx="252" cy="824" r="13" transform="rotate(0,252,824)"/><circle cx="252" cy="850" r="13" transform="rotate(0,252,850)"/><circle cx="252" cy="928" r="13" transform="rotate(0,252,928)"/><circle cx="252" cy="954" r="13" transform="rotate(0,252,954)"/><circle cx="252" cy="980" r="13" transform="rotate(0,252,980)"/><circle cx="278" cy="96" r="13" transform="rotate(0,278,96)"/><circle cx="278" cy="148" r="13" transform="rotate(0,278,148)"/><circle cx="278" cy="226" r="13" transform="rotate(0,278,226)"/><circle cx="278" cy="278" r="13" transform="rotate(0,278,278)"/><circle cx="278" cy="330" r="13" transform="rotate(0,278,330)"/><circle cx="278" cy="356" r="13" transform="rotate(0,278,356)"/><circle cx="278" cy="382" r="13" transform="rotate(0,278,382)"/><circle cx="278" cy="408" r="13" transform="rotate(0,278,408)"/><circle cx="278" cy="460" r="13" transform="rotate(0,278,460)"/><circle cx="278" cy="486" r="13" transform="rotate(0,278,486)"/><circle cx="278" cy="564" r="13" transform="rotate(0,278,564)"/><circle cx="278" cy="590" r="13" transform="rotate(0,278,590)"/><circle cx="278" cy="668" r="13" transform="rotate(0,278,668)"/><circle cx="278" cy="746" r="13" transform="rotate(0,278,746)"/><circle cx="278" cy="824" r="13" transform="rotate(0,278,824)"/><circle cx="278" cy="850" r="13" transform="rotate(0,278,850)"/><circle cx="278" cy="902" r="13" transform="rotate(0,278,902)"/><circle cx="304" cy="70" r="13" transform="rotate(0,304,70)"/><circle cx="304" cy="96" r="13" transform="rotate(0,304,96)"/><circle cx="304" cy="122" r="13" transform="rotate(0,304,122)"/><circle cx="304" cy="148" r="13" transform="rotate(0,304,148)"/><circle cx="304" cy="200" r="13" transform="rotate(0,304,200)"/><circle cx="304" cy="226" r="13" transform="rotate(0,304,226)"/><circle cx="304" cy="252" r="13" transform="rotate(0,304,252)"/><circle cx="304" cy="278" r="13" transform="rotate(0,304,278)"/><circle cx="304" cy="304" r="13" transform="rotate(0,304,304)"/><circle cx="304" cy="382" r="13" transform="rotate(0,304,382)"/><circle cx="304" cy="408" r="13" transform="rotate(0,304,408)"/><circle cx="304" cy="434" r="13" transform="rotate(0,304,434)"/><circle cx="304" cy="460" r="13" transform="rotate(0,304,460)"/><circle cx="304" cy="486" r="13" transform="rotate(0,304,486)"/><circle cx="304" cy="512" r="13" transform="rotate(0,304,512)"/><circle cx="304" cy="538" r="13" transform="rotate(0,304,538)"/><circle cx="304" cy="616" r="13" transform="rotate(0,304,616)"/><circle cx="304" cy="668" r="13" transform="rotate(0,304,668)"/><circle cx="304" cy="746" r="13" transform="rotate(0,304,746)"/><circle cx="304" cy="850" r="13" transform="rotate(0,304,850)"/><circle cx="304" cy="928" r="13" transform="rotate(0,304,928)"/><circle cx="304" cy="954" r="13" transform="rotate(0,304,954)"/><circle cx="304" cy="980" r="13" transform="rotate(0,304,980)"/><circle cx="330" cy="174" r="13" transform="rotate(0,330,174)"/><circle cx="330" cy="226" r="13" transform="rotate(0,330,226)"/><circle cx="330" cy="278" r="13" transform="rotate(0,330,278)"/><circle cx="330" cy="304" r="13" transform="rotate(0,330,304)"/><circle cx="330" cy="408" r="13" transform="rotate(0,330,408)"/><circle cx="330" cy="460" r="13" transform="rotate(0,330,460)"/><circle cx="330" cy="486" r="13" transform="rotate(0,330,486)"/><circle cx="330" cy="538" r="13" transform="rotate(0,330,538)"/><circle cx="330" cy="668" r="13" transform="rotate(0,330,668)"/><circle cx="330" cy="720" r="13" transform="rotate(0,330,720)"/><circle cx="330" cy="746" r="13" transform="rotate(0,330,746)"/><circle cx="330" cy="876" r="13" transform="rotate(0,330,876)"/><circle cx="330" cy="980" r="13" transform="rotate(0,330,980)"/><circle cx="356" cy="44" r="13" transform="rotate(0,356,44)"/><circle cx="356" cy="70" r="13" transform="rotate(0,356,70)"/><circle cx="356" cy="122" r="13" transform="rotate(0,356,122)"/><circle cx="356" cy="200" r="13" transform="rotate(0,356,200)"/><circle cx="356" cy="252" r="13" transform="rotate(0,356,252)"/><circle cx="356" cy="278" r="13" transform="rotate(0,356,278)"/><circle cx="356" cy="356" r="13" transform="rotate(0,356,356)"/><circle cx="356" cy="408" r="13" transform="rotate(0,356,408)"/><circle cx="356" cy="564" r="13" transform="rotate(0,356,564)"/><circle cx="356" cy="590" r="13" transform="rotate(0,356,590)"/><circle cx="356" cy="694" r="13" transform="rotate(0,356,694)"/><circle cx="356" cy="720" r="13" transform="rotate(0,356,720)"/><circle cx="356" cy="746" r="13" transform="rotate(0,356,746)"/><circle cx="356" cy="772" r="13" transform="rotate(0,356,772)"/><circle cx="356" cy="824" r="13" transform="rotate(0,356,824)"/><circle cx="356" cy="876" r="13" transform="rotate(0,356,876)"/><circle cx="356" cy="928" r="13" transform="rotate(0,356,928)"/><circle cx="356" cy="954" r="13" transform="rotate(0,356,954)"/><circle cx="356" cy="980" r="13" transform="rotate(0,356,980)"/><circle cx="382" cy="44" r="13" transform="rotate(0,382,44)"/><circle cx="382" cy="96" r="13" transform="rotate(0,382,96)"/><circle cx="382" cy="122" r="13" transform="rotate(0,382,122)"/><circle cx="382" cy="174" r="13" transform="rotate(0,382,174)"/><circle cx="382" cy="226" r="13" transform="rotate(0,382,226)"/><circle cx="382" cy="278" r="13" transform="rotate(0,382,278)"/><circle cx="382" cy="356" r="13" transform="rotate(0,382,356)"/><circle cx="382" cy="382" r="13" transform="rotate(0,382,382)"/><circle cx="382" cy="512" r="13" transform="rotate(0,382,512)"/><circle cx="382" cy="616" r="13" transform="rotate(0,382,616)"/><circle cx="382" cy="720" r="13" transform="rotate(0,382,720)"/><circle cx="382" cy="772" r="13" transform="rotate(0,382,772)"/><circle cx="382" cy="850" r="13" transform="rotate(0,382,850)"/><circle cx="408" cy="200" r="13" transform="rotate(0,408,200)"/><circle cx="408" cy="252" r="13" transform="rotate(0,408,252)"/><circle cx="408" cy="278" r="13" transform="rotate(0,408,278)"/><circle cx="408" cy="356" r="13" transform="rotate(0,408,356)"/><circle cx="408" cy="512" r="13" transform="rotate(0,408,512)"/><circle cx="408" cy="616" r="13" transform="rotate(0,408,616)"/><circle cx="408" cy="642" r="13" transform="rotate(0,408,642)"/><circle cx="408" cy="668" r="13" transform="rotate(0,408,668)"/><circle cx="408" cy="746" r="13" transform="rotate(0,408,746)"/><circle cx="408" cy="772" r="13" transform="rotate(0,408,772)"/><circle cx="408" cy="798" r="13" transform="rotate(0,408,798)"/><circle cx="408" cy="954" r="13" transform="rotate(0,408,954)"/><circle cx="408" cy="980" r="13" transform="rotate(0,408,980)"/><circle cx="434" cy="44" r="13" transform="rotate(0,434,44)"/><circle cx="434" cy="148" r="13" transform="rotate(0,434,148)"/><circle cx="434" cy="356" r="13" transform="rotate(0,434,356)"/><circle cx="434" cy="434" r="13" transform="rotate(0,434,434)"/><circle cx="434" cy="460" r="13" transform="rotate(0,434,460)"/><circle cx="434" cy="564" r="13" transform="rotate(0,434,564)"/><circle cx="434" cy="590" r="13" transform="rotate(0,434,590)"/><circle cx="434" cy="668" r="13" transform="rotate(0,434,668)"/><circle cx="434" cy="746" r="13" transform="rotate(0,434,746)"/><circle cx="434" cy="850" r="13" transform="rotate(0,434,850)"/><circle cx="434" cy="980" r="13" transform="rotate(0,434,980)"/><circle cx="460" cy="174" r="13" transform="rotate(0,460,174)"/><circle cx="460" cy="200" r="13" transform="rotate(0,460,200)"/><circle cx="460" cy="226" r="13" transform="rotate(0,460,226)"/><circle cx="460" cy="252" r="13" transform="rotate(0,460,252)"/><circle cx="460" cy="278" r="13" transform="rotate(0,460,278)"/><circle cx="460" cy="330" r="13" transform="rotate(0,460,330)"/><circle cx="460" cy="434" r="13" transform="rotate(0,460,434)"/><circle cx="460" cy="512" r="13" transform="rotate(0,460,512)"/><circle cx="460" cy="538" r="13" transform="rotate(0,460,538)"/><circle cx="460" cy="642" r="13" transform="rotate(0,460,642)"/><circle cx="460" cy="668" r="13" transform="rotate(0,460,668)"/><circle cx="460" cy="694" r="13" transform="rotate(0,460,694)"/><circle cx="460" cy="720" r="13" transform="rotate(0,460,720)"/><circle cx="460" cy="746" r="13" transform="rotate(0,460,746)"/><circle cx="460" cy="772" r="13" transform="rotate(0,460,772)"/><circle cx="460" cy="798" r="13" transform="rotate(0,460,798)"/><circle cx="460" cy="824" r="13" transform="rotate(0,460,824)"/><circle cx="460" cy="876" r="13" transform="rotate(0,460,876)"/><circle cx="460" cy="928" r="13" transform="rotate(0,460,928)"/><circle cx="460" cy="980" r="13" transform="rotate(0,460,980)"/><circle cx="486" cy="44" r="13" transform="rotate(0,486,44)"/><circle cx="486" cy="174" r="13" transform="rotate(0,486,174)"/><circle cx="486" cy="278" r="13" transform="rotate(0,486,278)"/><circle cx="486" cy="304" r="13" transform="rotate(0,486,304)"/><circle cx="486" cy="356" r="13" transform="rotate(0,486,356)"/><circle cx="486" cy="382" r="13" transform="rotate(0,486,382)"/><circle cx="486" cy="408" r="13" transform="rotate(0,486,408)"/><circle cx="486" cy="486" r="13" transform="rotate(0,486,486)"/><circle cx="486" cy="512" r="13" transform="rotate(0,486,512)"/><circle cx="486" cy="564" r="13" transform="rotate(0,486,564)"/><circle cx="486" cy="616" r="13" transform="rotate(0,486,616)"/><circle cx="486" cy="642" r="13" transform="rotate(0,486,642)"/><circle cx="486" cy="694" r="13" transform="rotate(0,486,694)"/><circle cx="486" cy="772" r="13" transform="rotate(0,486,772)"/><circle cx="486" cy="798" r="13" transform="rotate(0,486,798)"/><circle cx="486" cy="850" r="13" transform="rotate(0,486,850)"/><circle cx="486" cy="902" r="13" transform="rotate(0,486,902)"/><circle cx="486" cy="954" r="13" transform="rotate(0,486,954)"/><circle cx="512" cy="70" r="13" transform="rotate(0,512,70)"/><circle cx="512" cy="200" r="13" transform="rotate(0,512,200)"/><circle cx="512" cy="226" r="13" transform="rotate(0,512,226)"/><circle cx="512" cy="304" r="13" transform="rotate(0,512,304)"/><circle cx="512" cy="356" r="13" transform="rotate(0,512,356)"/><circle cx="512" cy="382" r="13" transform="rotate(0,512,382)"/><circle cx="512" cy="408" r="13" transform="rotate(0,512,408)"/><circle cx="512" cy="434" r="13" transform="rotate(0,512,434)"/><circle cx="512" cy="642" r="13" transform="rotate(0,512,642)"/><circle cx="512" cy="668" r="13" transform="rotate(0,512,668)"/><circle cx="512" cy="746" r="13" transform="rotate(0,512,746)"/><circle cx="512" cy="798" r="13" transform="rotate(0,512,798)"/><circle cx="512" cy="954" r="13" transform="rotate(0,512,954)"/><circle cx="512" cy="980" r="13" transform="rotate(0,512,980)"/><circle cx="538" cy="44" r="13" transform="rotate(0,538,44)"/><circle cx="538" cy="122" r="13" transform="rotate(0,538,122)"/><circle cx="538" cy="148" r="13" transform="rotate(0,538,148)"/><circle cx="538" cy="226" r="13" transform="rotate(0,538,226)"/><circle cx="538" cy="304" r="13" transform="rotate(0,538,304)"/><circle cx="538" cy="330" r="13" transform="rotate(0,538,330)"/><circle cx="538" cy="356" r="13" transform="rotate(0,538,356)"/><circle cx="538" cy="408" r="13" transform="rotate(0,538,408)"/><circle cx="538" cy="486" r="13" transform="rotate(0,538,486)"/><circle cx="538" cy="538" r="13" transform="rotate(0,538,538)"/><circle cx="538" cy="590" r="13" transform="rotate(0,538,590)"/><circle cx="538" cy="616" r="13" transform="rotate(0,538,616)"/><circle cx="538" cy="642" r="13" transform="rotate(0,538,642)"/><circle cx="538" cy="720" r="13" transform="rotate(0,538,720)"/><circle cx="538" cy="746" r="13" transform="rotate(0,538,746)"/><circle cx="538" cy="798" r="13" transform="rotate(0,538,798)"/><circle cx="538" cy="850" r="13" transform="rotate(0,538,850)"/><circle cx="538" cy="902" r="13" transform="rotate(0,538,902)"/><circle cx="538" cy="980" r="13" transform="rotate(0,538,980)"/><circle cx="564" cy="44" r="13" transform="rotate(0,564,44)"/><circle cx="564" cy="70" r="13" transform="rotate(0,564,70)"/><circle cx="564" cy="96" r="13" transform="rotate(0,564,96)"/><circle cx="564" cy="122" r="13" transform="rotate(0,564,122)"/><circle cx="564" cy="200" r="13" transform="rotate(0,564,200)"/><circle cx="564" cy="278" r="13" transform="rotate(0,564,278)"/><circle cx="564" cy="356" r="13" transform="rotate(0,564,356)"/><circle cx="564" cy="616" r="13" transform="rotate(0,564,616)"/><circle cx="564" cy="694" r="13" transform="rotate(0,564,694)"/><circle cx="564" cy="720" r="13" transform="rotate(0,564,720)"/><circle cx="564" cy="746" r="13" transform="rotate(0,564,746)"/><circle cx="564" cy="772" r="13" transform="rotate(0,564,772)"/><circle cx="564" cy="798" r="13" transform="rotate(0,564,798)"/><circle cx="564" cy="824" r="13" transform="rotate(0,564,824)"/><circle cx="564" cy="850" r="13" transform="rotate(0,564,850)"/><circle cx="564" cy="876" r="13" transform="rotate(0,564,876)"/><circle cx="564" cy="928" r="13" transform="rotate(0,564,928)"/><circle cx="590" cy="44" r="13" transform="rotate(0,590,44)"/><circle cx="590" cy="252" r="13" transform="rotate(0,590,252)"/><circle cx="590" cy="278" r="13" transform="rotate(0,590,278)"/><circle cx="590" cy="356" r="13" transform="rotate(0,590,356)"/><circle cx="590" cy="408" r="13" transform="rotate(0,590,408)"/><circle cx="590" cy="434" r="13" transform="rotate(0,590,434)"/><circle cx="590" cy="486" r="13" transform="rotate(0,590,486)"/><circle cx="590" cy="538" r="13" transform="rotate(0,590,538)"/><circle cx="590" cy="590" r="13" transform="rotate(0,590,590)"/><circle cx="590" cy="616" r="13" transform="rotate(0,590,616)"/><circle cx="590" cy="668" r="13" transform="rotate(0,590,668)"/><circle cx="590" cy="772" r="13" transform="rotate(0,590,772)"/><circle cx="590" cy="928" r="13" transform="rotate(0,590,928)"/><circle cx="616" cy="70" r="13" transform="rotate(0,616,70)"/><circle cx="616" cy="96" r="13" transform="rotate(0,616,96)"/><circle cx="616" cy="174" r="13" transform="rotate(0,616,174)"/><circle cx="616" cy="200" r="13" transform="rotate(0,616,200)"/><circle cx="616" cy="226" r="13" transform="rotate(0,616,226)"/><circle cx="616" cy="252" r="13" transform="rotate(0,616,252)"/><circle cx="616" cy="304" r="13" transform="rotate(0,616,304)"/><circle cx="616" cy="382" r="13" transform="rotate(0,616,382)"/><circle cx="616" cy="408" r="13" transform="rotate(0,616,408)"/><circle cx="616" cy="434" r="13" transform="rotate(0,616,434)"/><circle cx="616" cy="460" r="13" transform="rotate(0,616,460)"/><circle cx="616" cy="486" r="13" transform="rotate(0,616,486)"/><circle cx="616" cy="538" r="13" transform="rotate(0,616,538)"/><circle cx="616" cy="564" r="13" transform="rotate(0,616,564)"/><circle cx="616" cy="590" r="13" transform="rotate(0,616,590)"/><circle cx="616" cy="616" r="13" transform="rotate(0,616,616)"/><circle cx="616" cy="642" r="13" transform="rotate(0,616,642)"/><circle cx="616" cy="746" r="13" transform="rotate(0,616,746)"/><circle cx="616" cy="772" r="13" transform="rotate(0,616,772)"/><circle cx="616" cy="798" r="13" transform="rotate(0,616,798)"/><circle cx="616" cy="850" r="13" transform="rotate(0,616,850)"/><circle cx="616" cy="902" r="13" transform="rotate(0,616,902)"/><circle cx="616" cy="928" r="13" transform="rotate(0,616,928)"/><circle cx="616" cy="954" r="13" transform="rotate(0,616,954)"/><circle cx="616" cy="980" r="13" transform="rotate(0,616,980)"/><circle cx="642" cy="44" r="13" transform="rotate(0,642,44)"/><circle cx="642" cy="122" r="13" transform="rotate(0,642,122)"/><circle cx="642" cy="278" r="13" transform="rotate(0,642,278)"/><circle cx="642" cy="304" r="13" transform="rotate(0,642,304)"/><circle cx="642" cy="330" r="13" transform="rotate(0,642,330)"/><circle cx="642" cy="382" r="13" transform="rotate(0,642,382)"/><circle cx="642" cy="408" r="13" transform="rotate(0,642,408)"/><circle cx="642" cy="460" r="13" transform="rotate(0,642,460)"/><circle cx="642" cy="564" r="13" transform="rotate(0,642,564)"/><circle cx="642" cy="616" r="13" transform="rotate(0,642,616)"/><circle cx="642" cy="668" r="13" transform="rotate(0,642,668)"/><circle cx="642" cy="720" r="13" transform="rotate(0,642,720)"/><circle cx="642" cy="772" r="13" transform="rotate(0,642,772)"/><circle cx="642" cy="876" r="13" transform="rotate(0,642,876)"/><circle cx="642" cy="902" r="13" transform="rotate(0,642,902)"/><circle cx="668" cy="44" r="13" transform="rotate(0,668,44)"/><circle cx="668" cy="96" r="13" transform="rotate(0,668,96)"/><circle cx="668" cy="148" r="13" transform="rotate(0,668,148)"/><circle cx="668" cy="200" r="13" transform="rotate(0,668,200)"/><circle cx="668" cy="304" r="13" transform="rotate(0,668,304)"/><circle cx="668" cy="330" r="13" transform="rotate(0,668,330)"/><circle cx="668" cy="408" r="13" transform="rotate(0,668,408)"/><circle cx="668" cy="434" r="13" transform="rotate(0,668,434)"/><circle cx="668" cy="460" r="13" transform="rotate(0,668,460)"/><circle cx="668" cy="512" r="13" transform="rotate(0,668,512)"/><circle cx="668" cy="538" r="13" transform="rotate(0,668,538)"/><circle cx="668" cy="590" r="13" transform="rotate(0,668,590)"/><circle cx="668" cy="616" r="13" transform="rotate(0,668,616)"/><circle cx="668" cy="798" r="13" transform="rotate(0,668,798)"/><circle cx="668" cy="824" r="13" transform="rotate(0,668,824)"/><circle cx="668" cy="928" r="13" transform="rotate(0,668,928)"/><circle cx="668" cy="954" r="13" transform="rotate(0,668,954)"/><circle cx="668" cy="980" r="13" transform="rotate(0,668,980)"/><circle cx="694" cy="44" r="13" transform="rotate(0,694,44)"/><circle cx="694" cy="70" r="13" transform="rotate(0,694,70)"/><circle cx="694" cy="148" r="13" transform="rotate(0,694,148)"/><circle cx="694" cy="174" r="13" transform="rotate(0,694,174)"/><circle cx="694" cy="226" r="13" transform="rotate(0,694,226)"/><circle cx="694" cy="252" r="13" transform="rotate(0,694,252)"/><circle cx="694" cy="278" r="13" transform="rotate(0,694,278)"/><circle cx="694" cy="330" r="13" transform="rotate(0,694,330)"/><circle cx="694" cy="356" r="13" transform="rotate(0,694,356)"/><circle cx="694" cy="382" r="13" transform="rotate(0,694,382)"/><circle cx="694" cy="408" r="13" transform="rotate(0,694,408)"/><circle cx="694" cy="434" r="13" transform="rotate(0,694,434)"/><circle cx="694" cy="538" r="13" transform="rotate(0,694,538)"/><circle cx="694" cy="564" r="13" transform="rotate(0,694,564)"/><circle cx="694" cy="590" r="13" transform="rotate(0,694,590)"/><circle cx="694" cy="668" r="13" transform="rotate(0,694,668)"/><circle cx="694" cy="694" r="13" transform="rotate(0,694,694)"/><circle cx="694" cy="720" r="13" transform="rotate(0,694,720)"/><circle cx="694" cy="798" r="13" transform="rotate(0,694,798)"/><circle cx="694" cy="824" r="13" transform="rotate(0,694,824)"/><circle cx="694" cy="850" r="13" transform="rotate(0,694,850)"/><circle cx="694" cy="954" r="13" transform="rotate(0,694,954)"/><circle cx="720" cy="44" r="13" transform="rotate(0,720,44)"/><circle cx="720" cy="200" r="13" transform="rotate(0,720,200)"/><circle cx="720" cy="252" r="13" transform="rotate(0,720,252)"/><circle cx="720" cy="304" r="13" transform="rotate(0,720,304)"/><circle cx="720" cy="356" r="13" transform="rotate(0,720,356)"/><circle cx="720" cy="460" r="13" transform="rotate(0,720,460)"/><circle cx="720" cy="538" r="13" transform="rotate(0,720,538)"/><circle cx="720" cy="564" r="13" transform="rotate(0,720,564)"/><circle cx="720" cy="590" r="13" transform="rotate(0,720,590)"/><circle cx="720" cy="616" r="13" transform="rotate(0,720,616)"/><circle cx="720" cy="746" r="13" transform="rotate(0,720,746)"/><circle cx="720" cy="798" r="13" transform="rotate(0,720,798)"/><circle cx="720" cy="850" r="13" transform="rotate(0,720,850)"/><circle cx="720" cy="954" r="13" transform="rotate(0,720,954)"/><circle cx="720" cy="980" r="13" transform="rotate(0,720,980)"/><circle cx="746" cy="44" r="13" transform="rotate(0,746,44)"/><circle cx="746" cy="96" r="13" transform="rotate(0,746,96)"/><circle cx="746" cy="122" r="13" transform="rotate(0,746,122)"/><circle cx="746" cy="148" r="13" transform="rotate(0,746,148)"/><circle cx="746" cy="226" r="13" transform="rotate(0,746,226)"/><circle cx="746" cy="408" r="13" transform="rotate(0,746,408)"/><circle cx="746" cy="434" r="13" transform="rotate(0,746,434)"/><circle cx="746" cy="460" r="13" transform="rotate(0,746,460)"/><circle cx="746" cy="486" r="13" transform="rotate(0,746,486)"/><circle cx="746" cy="538" r="13" transform="rotate(0,746,538)"/><circle cx="746" cy="564" r="13" transform="rotate(0,746,564)"/><circle cx="746" cy="668" r="13" transform="rotate(0,746,668)"/><circle cx="746" cy="720" r="13" transform="rotate(0,746,720)"/><circle cx="746" cy="798" r="13" transform="rotate(0,746,798)"/><circle cx="746" cy="850" r="13" transform="rotate(0,746,850)"/><circle cx="746" cy="876" r="13" transform="rotate(0,746,876)"/><circle cx="746" cy="902" r="13" transform="rotate(0,746,902)"/><circle cx="772" cy="44" r="13" transform="rotate(0,772,44)"/><circle cx="772" cy="122" r="13" transform="rotate(0,772,122)"/><circle cx="772" cy="174" r="13" transform="rotate(0,772,174)"/><circle cx="772" cy="200" r="13" transform="rotate(0,772,200)"/><circle cx="772" cy="226" r="13" transform="rotate(0,772,226)"/><circle cx="772" cy="304" r="13" transform="rotate(0,772,304)"/><circle cx="772" cy="434" r="13" transform="rotate(0,772,434)"/><circle cx="772" cy="460" r="13" transform="rotate(0,772,460)"/><circle cx="772" cy="564" r="13" transform="rotate(0,772,564)"/><circle cx="772" cy="590" r="13" transform="rotate(0,772,590)"/><circle cx="772" cy="616" r="13" transform="rotate(0,772,616)"/><circle cx="772" cy="668" r="13" transform="rotate(0,772,668)"/><circle cx="772" cy="694" r="13" transform="rotate(0,772,694)"/><circle cx="772" cy="746" r="13" transform="rotate(0,772,746)"/><circle cx="772" cy="772" r="13" transform="rotate(0,772,772)"/><circle cx="772" cy="798" r="13" transform="rotate(0,772,798)"/><circle cx="772" cy="824" r="13" transform="rotate(0,772,824)"/><circle cx="772" cy="850" r="13" transform="rotate(0,772,850)"/><circle cx="772" cy="876" r="13" transform="rotate(0,772,876)"/><circle cx="772" cy="928" r="13" transform="rotate(0,772,928)"/><circle cx="772" cy="954" r="13" transform="rotate(0,772,954)"/><circle cx="772" cy="980" r="13" transform="rotate(0,772,980)"/><circle cx="798" cy="252" r="13" transform="rotate(0,798,252)"/><circle cx="798" cy="278" r="13" transform="rotate(0,798,278)"/><circle cx="798" cy="304" r="13" transform="rotate(0,798,304)"/><circle cx="798" cy="408" r="13" transform="rotate(0,798,408)"/><circle cx="798" cy="460" r="13" transform="rotate(0,798,460)"/><circle cx="798" cy="512" r="13" transform="rotate(0,798,512)"/><circle cx="798" cy="538" r="13" transform="rotate(0,798,538)"/><circle cx="798" cy="642" r="13" transform="rotate(0,798,642)"/><circle cx="798" cy="668" r="13" transform="rotate(0,798,668)"/><circle cx="798" cy="694" r="13" transform="rotate(0,798,694)"/><circle cx="798" cy="720" r="13" transform="rotate(0,798,720)"/><circle cx="798" cy="746" r="13" transform="rotate(0,798,746)"/><circle cx="798" cy="772" r="13" transform="rotate(0,798,772)"/><circle cx="798" cy="876" r="13" transform="rotate(0,798,876)"/><circle cx="798" cy="902" r="13" transform="rotate(0,798,902)"/><circle cx="798" cy="954" r="13" transform="rotate(0,798,954)"/><circle cx="824" cy="278" r="13" transform="rotate(0,824,278)"/><circle cx="824" cy="304" r="13" transform="rotate(0,824,304)"/><circle cx="824" cy="434" r="13" transform="rotate(0,824,434)"/><circle cx="824" cy="460" r="13" transform="rotate(0,824,460)"/><circle cx="824" cy="512" r="13" transform="rotate(0,824,512)"/><circle cx="824" cy="538" r="13" transform="rotate(0,824,538)"/><circle cx="824" cy="590" r="13" transform="rotate(0,824,590)"/><circle cx="824" cy="668" r="13" transform="rotate(0,824,668)"/><circle cx="824" cy="772" r="13" transform="rotate(0,824,772)"/><circle cx="824" cy="824" r="13" transform="rotate(0,824,824)"/><circle cx="824" cy="876" r="13" transform="rotate(0,824,876)"/><circle cx="824" cy="902" r="13" transform="rotate(0,824,902)"/><circle cx="824" cy="954" r="13" transform="rotate(0,824,954)"/><circle cx="824" cy="980" r="13" transform="rotate(0,824,980)"/><circle cx="850" cy="356" r="13" transform="rotate(0,850,356)"/><circle cx="850" cy="382" r="13" transform="rotate(0,850,382)"/><circle cx="850" cy="408" r="13" transform="rotate(0,850,408)"/><circle cx="850" cy="434" r="13" transform="rotate(0,850,434)"/><circle cx="850" cy="486" r="13" transform="rotate(0,850,486)"/><circle cx="850" cy="512" r="13" transform="rotate(0,850,512)"/><circle cx="850" cy="564" r="13" transform="rotate(0,850,564)"/><circle cx="850" cy="590" r="13" transform="rotate(0,850,590)"/><circle cx="850" cy="616" r="13" transform="rotate(0,850,616)"/><circle cx="850" cy="642" r="13" transform="rotate(0,850,642)"/><circle cx="850" cy="720" r="13" transform="rotate(0,850,720)"/><circle cx="850" cy="772" r="13" transform="rotate(0,850,772)"/><circle cx="850" cy="876" r="13" transform="rotate(0,850,876)"/><circle cx="850" cy="954" r="13" transform="rotate(0,850,954)"/><circle cx="876" cy="252" r="13" transform="rotate(0,876,252)"/><circle cx="876" cy="330" r="13" transform="rotate(0,876,330)"/><circle cx="876" cy="356" r="13" transform="rotate(0,876,356)"/><circle cx="876" cy="382" r="13" transform="rotate(0,876,382)"/><circle cx="876" cy="460" r="13" transform="rotate(0,876,460)"/><circle cx="876" cy="486" r="13" transform="rotate(0,876,486)"/><circle cx="876" cy="512" r="13" transform="rotate(0,876,512)"/><circle cx="876" cy="642" r="13" transform="rotate(0,876,642)"/><circle cx="876" cy="668" r="13" transform="rotate(0,876,668)"/><circle cx="876" cy="694" r="13" transform="rotate(0,876,694)"/><circle cx="876" cy="746" r="13" transform="rotate(0,876,746)"/><circle cx="876" cy="772" r="13" transform="rotate(0,876,772)"/><circle cx="876" cy="798" r="13" transform="rotate(0,876,798)"/><circle cx="876" cy="824" r="13" transform="rotate(0,876,824)"/><circle cx="876" cy="850" r="13" transform="rotate(0,876,850)"/><circle cx="876" cy="876" r="13" transform="rotate(0,876,876)"/><circle cx="876" cy="902" r="13" transform="rotate(0,876,902)"/><circle cx="876" cy="928" r="13" transform="rotate(0,876,928)"/><circle cx="876" cy="954" r="13" transform="rotate(0,876,954)"/><circle cx="902" cy="252" r="13" transform="rotate(0,902,252)"/><circle cx="902" cy="278" r="13" transform="rotate(0,902,278)"/><circle cx="902" cy="304" r="13" transform="rotate(0,902,304)"/><circle cx="902" cy="356" r="13" transform="rotate(0,902,356)"/><circle cx="902" cy="408" r="13" transform="rotate(0,902,408)"/><circle cx="902" cy="512" r="13" transform="rotate(0,902,512)"/><circle cx="902" cy="564" r="13" transform="rotate(0,902,564)"/><circle cx="902" cy="590" r="13" transform="rotate(0,902,590)"/><circle cx="902" cy="616" r="13" transform="rotate(0,902,616)"/><circle cx="902" cy="694" r="13" transform="rotate(0,902,694)"/><circle cx="902" cy="746" r="13" transform="rotate(0,902,746)"/><circle cx="902" cy="772" r="13" transform="rotate(0,902,772)"/><circle cx="902" cy="824" r="13" transform="rotate(0,902,824)"/><circle cx="902" cy="928" r="13" transform="rotate(0,902,928)"/><circle cx="928" cy="252" r="13" transform="rotate(0,928,252)"/><circle cx="928" cy="356" r="13" transform="rotate(0,928,356)"/><circle cx="928" cy="382" r="13" transform="rotate(0,928,382)"/><circle cx="928" cy="408" r="13" transform="rotate(0,928,408)"/><circle cx="928" cy="460" r="13" transform="rotate(0,928,460)"/><circle cx="928" cy="486" r="13" transform="rotate(0,928,486)"/><circle cx="928" cy="512" r="13" transform="rotate(0,928,512)"/><circle cx="928" cy="564" r="13" transform="rotate(0,928,564)"/><circle cx="928" cy="590" r="13" transform="rotate(0,928,590)"/><circle cx="928" cy="642" r="13" transform="rotate(0,928,642)"/><circle cx="928" cy="668" r="13" transform="rotate(0,928,668)"/><circle cx="928" cy="694" r="13" transform="rotate(0,928,694)"/><circle cx="928" cy="720" r="13" transform="rotate(0,928,720)"/><circle cx="928" cy="772" r="13" transform="rotate(0,928,772)"/><circle cx="928" cy="850" r="13" transform="rotate(0,928,850)"/><circle cx="928" cy="980" r="13" transform="rotate(0,928,980)"/><circle cx="954" cy="278" r="13" transform="rotate(0,954,278)"/><circle cx="954" cy="408" r="13" transform="rotate(0,954,408)"/><circle cx="954" cy="460" r="13" transform="rotate(0,954,460)"/><circle cx="954" cy="512" r="13" transform="rotate(0,954,512)"/><circle cx="954" cy="538" r="13" transform="rotate(0,954,538)"/><circle cx="954" cy="564" r="13" transform="rotate(0,954,564)"/><circle cx="954" cy="616" r="13" transform="rotate(0,954,616)"/><circle cx="954" cy="642" r="13" transform="rotate(0,954,642)"/><circle cx="954" cy="720" r="13" transform="rotate(0,954,720)"/><circle cx="954" cy="746" r="13" transform="rotate(0,954,746)"/><circle cx="954" cy="850" r="13" transform="rotate(0,954,850)"/><circle cx="954" cy="980" r="13" transform="rotate(0,954,980)"/><circle cx="980" cy="278" r="13" transform="rotate(0,980,278)"/><circle cx="980" cy="304" r="13" transform="rotate(0,980,304)"/><circle cx="980" cy="330" r="13" transform="rotate(0,980,330)"/><circle cx="980" cy="356" r="13" transform="rotate(0,980,356)"/><circle cx="980" cy="382" r="13" transform="rotate(0,980,382)"/><circle cx="980" cy="434" r="13" transform="rotate(0,980,434)"/><circle cx="980" cy="538" r="13" transform="rotate(0,980,538)"/><circle cx="980" cy="590" r="13" transform="rotate(0,980,590)"/><circle cx="980" cy="642" r="13" transform="rotate(0,980,642)"/><circle cx="980" cy="668" r="13" transform="rotate(0,980,668)"/><circle cx="980" cy="694" r="13" transform="rotate(0,980,694)"/><circle cx="980" cy="720" r="13" transform="rotate(0,980,720)"/><circle cx="980" cy="798" r="13" transform="rotate(0,980,798)"/><circle cx="980" cy="824" r="13" transform="rotate(0,980,824)"/><circle cx="980" cy="850" r="13" transform="rotate(0,980,850)"/><circle cx="980" cy="876" r="13" transform="rotate(0,980,876)"/><circle cx="980" cy="902" r="13" transform="rotate(0,980,902)"/><circle cx="980" cy="928" r="13" transform="rotate(0,980,928)"/><circle cx="980" cy="954" r="13" transform="rotate(0,980,954)"/><circle cx="980" cy="980" r="13" transform="rotate(0,980,980)"/></clipPath><clipPath id="clip-path-corners-square-color-0-0"><path clip-rule="evenodd" d="M 31 96v 52a 65 65, 0, 0, 0, 65 65h 52a 65 65, 0, 0, 0, 65 -65v -52a 65 65, 0, 0, 0, -65 -65h -52a 65 65, 0, 0, 0, -65 65M 96 57h 52a 39 39, 0, 0, 1, 39 39v 52a 39 39, 0, 0, 1, -39 39h -52a 39 39, 0, 0, 1, -39 -39v -52a 39 39, 0, 0, 1, 39 -39" transform="rotate(0,122,122)"/></clipPath><clipPath id="clip-path-corners-dot-color-0-0"><circle cx="96" cy="96" r="13" transform="rotate(0,96,96)"/><circle cx="96" cy="122" r="13" transform="rotate(0,96,122)"/><circle cx="96" cy="148" r="13" transform="rotate(0,96,148)"/><circle cx="122" cy="96" r="13" transform="rotate(0,122,96)"/><circle cx="122" cy="122" r="13" transform="rotate(0,122,122)"/><circle cx="122" cy="148" r="13" transform="rotate(0,122,148)"/><circle cx="148" cy="96" r="13" transform="rotate(0,148,96)"/><circle cx="148" cy="122" r="13" transform="rotate(0,148,122)"/><circle cx="148" cy="148" r="13" transform="rotate(0,148,148)"/></clipPath><clipPath id="clip-path-corners-square-color-1-0"><path clip-rule="evenodd" d="M 811 96v 52a 65 65, 0, 0, 0, 65 65h 52a 65 65, 0, 0, 0, 65 -65v -52a 65 65, 0, 0, 0, -65 -65h -52a 65 65, 0, 0, 0, -65 65M 876 57h 52a 39 39, 0, 0, 1, 39 39v 52a 39 39, 0, 0, 1, -39 39h -52a 39 39, 0, 0, 1, -39 -39v -52a 39 39, 0, 0, 1, 39 -39" transform="rotate(90,902,122)"/></clipPath><clipPath id="clip-path-corners-dot-color-1-0"><circle cx="876" cy="96" r="13" transform="rotate(0,876,96)"/><circle cx="876" cy="122" r="13" transform="rotate(0,876,122)"/><circle cx="876" cy="148" r="13" transform="rotate(0,876,148)"/><circle cx="902" cy="96" r="13" transform="rotate(0,902,96)"/><circle cx="902" cy="122" r="13" transform="rotate(0,902,122)"/><circle cx="902" cy="148" r="13" transform="rotate(0,902,148)"/><circle cx="928" cy="96" r="13" transform="rotate(0,928,96)"/><circle cx="928" cy="122" r="13" transform="rotate(0,928,122)"/><circle cx="928" cy="148" r="13" transform="rotate(0,928,148)"/></clipPath><clipPath id="clip-path-corners-square-color-0-1"><path clip-rule="evenodd" d="M 31 876v 52a 65 65, 0, 0, 0, 65 65h 52a 65 65, 0, 0, 0, 65 -65v -52a 65 65, 0, 0, 0, -65 -65h -52a 65 65, 0, 0, 0, -65 65M 96 837h 52a 39 39, 0, 0, 1, 39 39v 52a 39 39, 0, 0, 1, -39 39h -52a 39 39, 0, 0, 1, -39 -39v -52a 39 39, 0, 0, 1, 39 -39" transform="rotate(-90,122,902)"/></clipPath><clipPath id="clip-path-corners-dot-color-0-1"><circle cx="96" cy="876" r="13" transform="rotate(0,96,876)"/><circle cx="96" cy="902" r="13" transform="rotate(0,96,902)"/><circle cx="96" cy="928" r="13" transform="rotate(0,96,928)"/><circle cx="122" cy="876" r="13" transform="rotate(0,122,876)"/><circle cx="122" cy="902" r="13" transform="rotate(0,122,902)"/><circle cx="122" cy="928" r="13" transform="rotate(0,122,928)"/><circle cx="148" cy="876" r="13" transform="rotate(0,148,876)"/><circle cx="148" cy="902" r="13" transform="rotate(0,148,902)"/><circle cx="148" cy="928" r="13" transform="rotate(0,148,928)"/></clipPath></defs><rect x="0" y="0" height="1024" width="1024" clip-path="url('#clip-path-background-color')" fill="#ffffff"/><rect x="0" y="0" height="1024" width="1024" clip-path="url('#clip-path-dot-color')" fill="#000000"/><rect x="31" y="31" height="182" width="182" clip-path="url('#clip-path-corners-square-color-0-0')" fill="#000000"/><rect x="83" y="83" height="78" width="78" clip-path="url('#clip-path-corners-dot-color-0-0')" fill="#000000"/><rect x="811" y="31" height="182" width="182" clip-path="url('#clip-path-corners-square-color-1-0')" fill="#000000"/><rect x="863" y="83" height="78" width="78" clip-path="url('#clip-path-corners-dot-color-1-0')" fill="#000000"/><rect x="31" y="811" height="182" width="182" clip-path="url('#clip-path-corners-square-color-0-1')" fill="#000000"/><rect x="83" y="863" height="78" width="78" clip-path="url('#clip-path-corners-dot-color-0-1')" fill="#000000"/></svg>
